# xmcd
#
# Track frame offsets:
#	150
#	21545
#	46855
#	72240
#	92685
#	116110
#	141255
#	169410
#
# Disc length: 2472 seconds
#
# Revision: 1
# Processed by: cddbd v1.4PL0 Copyright (c) Steve Scherf et al.
# Submitted via: audiograbber 1.82.01
#
DISCID=7309a608
DTITLE=Hany El Omary - Yoghany
DYEAR=1900
DGENRE=
TTITLE0=Yalla Nghani
TTITLE1=Habibi Yalli Bhebbo
TTITLE2=Ma3zour
TTITLE3=So3beh
TTITLE4=Helefti Tkouni Liyya
TTITLE5=Houwwa Wala Ana
TTITLE6=z3elna Sahih
TTITLE7=Kholset El Risali
EXTD=
EXTT0=
EXTT1=
EXTT2=
EXTT3=
EXTT4=
EXTT5=
EXTT6=
EXTT7=
PLAYORDER=
